<svg width="13" height="16" viewBox="0 0 13 16" fill="none" xmlns="http://www.w3.org/2000/svg">
<path d="M2.29688 4.39062C2.60781 4.39062 2.85938 4.13906 2.85938 3.82812V0.5625C2.85938 0.251563 2.60781 0 2.29688 0C1.98594 0 1.73438 0.251563 1.73438 0.5625V3.82812C1.73438 4.13906 1.98594 4.39062 2.29688 4.39062ZM11.875 6.64062H10C10 6.01875 9.49687 5.51562 8.875 5.51562H1.125C0.503125 5.51562 0 6.01875 0 6.64062V10.5156C0 10.5688 0.00312495 10.6203 0.0109375 10.6703C0.00312495 10.7797 0 10.8891 0 11C0 13.7609 2.23906 16 5 16C7.50156 16 9.57344 14.1641 9.94219 11.7656H11.875C12.4969 11.7656 13 11.2625 13 10.6406V7.76562C13 7.14375 12.4969 6.64062 11.875 6.64062ZM8.875 10.6406H8.85781C8.86875 10.7594 8.875 10.8781 8.875 11C8.875 13.1406 7.14062 14.875 5 14.875C2.85938 14.875 1.125 13.1406 1.125 11C1.125 10.8781 1.13125 10.7594 1.14219 10.6406H1.125V6.64062H8.875V10.6406ZM11.875 10.5156H10.125V7.76562H11.875V10.5156ZM7.57812 4.39062C7.88906 4.39062 8.14062 4.13906 8.14062 3.82812V0.5625C8.14062 0.251563 7.88906 0 7.57812 0C7.26719 0 7.01562 0.251563 7.01562 0.5625V3.82812C7.01562 4.13906 7.26719 4.39062 7.57812 4.39062ZM4.92188 4.39062C5.23281 4.39062 5.48438 4.13906 5.48438 3.82812V0.5625C5.48438 0.251563 5.23281 0 4.92188 0C4.61094 0 4.35938 0.251563 4.35938 0.5625V3.82812C4.35938 4.13906 4.61094 4.39062 4.92188 4.39062Z" fill="#333333"/>
</svg>
