<svg width="14" height="16" viewBox="0 0 14 16" fill="none" xmlns="http://www.w3.org/2000/svg">
<path d="M2.76852 3.69545V0.619308C2.76852 0.45614 2.83334 0.299654 2.94872 0.184277C3.0641 0.0688992 3.22058 0.00408083 3.38375 0.00408083C3.54692 0.00408083 3.70341 0.0688992 3.81878 0.184277C3.93416 0.299654 3.99898 0.45614 3.99898 0.619308V3.69545C3.99898 3.85862 3.93416 4.0151 3.81878 4.13048C3.70341 4.24586 3.54692 4.31067 3.38375 4.31067C3.22058 4.31067 3.0641 4.24586 2.94872 4.13048C2.83334 4.0151 2.76852 3.85862 2.76852 3.69545ZM6.14389 0.51818C6.13109 0.438055 6.10257 0.361253 6.05997 0.292197C6.01736 0.223141 5.96152 0.163194 5.89565 0.115809C5.82979 0.0684236 5.7552 0.0345356 5.67618 0.0160964C5.59716 -0.00234281 5.51528 -0.00496907 5.43524 0.00836878C5.3552 0.0217066 5.27859 0.0507452 5.20982 0.0938123C5.14106 0.136879 5.08149 0.193124 5.03455 0.259309C4.9876 0.325493 4.95422 0.400309 4.93631 0.47945C4.9184 0.55859 4.91633 0.640491 4.9302 0.720436L5.53651 4.35843C5.52393 4.92104 5.29159 5.45637 4.88924 5.84982C4.48689 6.24328 3.9465 6.46358 3.38375 6.46358C2.821 6.46358 2.28061 6.24328 1.87826 5.84982C1.47591 5.45637 1.24358 4.92104 1.23099 4.35843L1.8373 0.720436C1.85118 0.640491 1.8491 0.55859 1.83119 0.47945C1.81329 0.400309 1.7799 0.325493 1.73296 0.259309C1.68602 0.193124 1.62645 0.136879 1.55768 0.0938123C1.48891 0.0507452 1.4123 0.0217066 1.33227 0.00836878C1.25223 -0.00496907 1.17034 -0.00234281 1.09133 0.0160964C1.01231 0.0345356 0.937717 0.0684236 0.87185 0.115809C0.805983 0.163194 0.75014 0.223141 0.707536 0.292197C0.664932 0.361253 0.63641 0.438055 0.62361 0.51818L0.00838257 4.20955C0.00279937 4.24297 -4.47651e-06 4.27679 5.36455e-09 4.31067C0.0011092 5.10101 0.278431 5.86609 0.783988 6.47358C1.28955 7.08106 1.99154 7.49273 2.76852 7.63736V15.3848C2.76852 15.5479 2.83334 15.7044 2.94872 15.8198C3.0641 15.9352 3.22058 16 3.38375 16C3.54692 16 3.70341 15.9352 3.81878 15.8198C3.93416 15.7044 3.99898 15.5479 3.99898 15.3848V7.63736C4.77596 7.49273 5.47796 7.08106 5.98352 6.47358C6.48907 5.86609 6.76639 5.10101 6.7675 4.31067C6.76751 4.27679 6.7647 4.24297 6.75912 4.20955L6.14389 0.51818ZM13.2274 0.619308V15.3848C13.2274 15.5479 13.1626 15.7044 13.0472 15.8198C12.9318 15.9352 12.7753 16 12.6122 16C12.449 16 12.2925 15.9352 12.1771 15.8198C12.0618 15.7044 11.9969 15.5479 11.9969 15.3848V11.0782H8.30557C8.21924 11.0782 8.13388 11.06 8.05503 11.0249C7.97618 10.9897 7.90561 10.9384 7.84791 10.8742C7.7902 10.8099 7.74666 10.7343 7.72011 10.6522C7.69356 10.57 7.6846 10.4832 7.69381 10.3974C7.87915 8.85579 8.18143 7.33055 8.59804 5.83482C9.52242 2.57212 10.8023 0.622769 12.4019 0.0410715C12.4949 0.00727447 12.5946 -0.00361994 12.6926 0.0093115C12.7907 0.0222429 12.8841 0.0586191 12.9651 0.115357C13.0461 0.172096 13.1123 0.247524 13.1579 0.33525C13.2036 0.422976 13.2274 0.520415 13.2274 0.619308ZM11.9969 1.72349C11.1458 2.51213 10.3906 4.02182 9.78189 6.17028C9.44695 7.37865 9.1883 8.60689 9.00747 9.84772H11.9969V1.72349Z" fill="#333333"/>
</svg>
