<svg width="15" height="16" viewBox="0 0 15 16" fill="none" xmlns="http://www.w3.org/2000/svg">
<path d="M7.38462 0C6.81477 0 6.18769 0.166154 5.65354 0.326769C5.12985 0.485538 4.74523 0.649231 4.73046 0.653538H4.712L2.94215 1.25046L2.88431 1.26892C2.80642 1.29091 2.72961 1.31658 2.65415 1.34585L2.46154 1.40431V1.424C1.94708 1.64492 1.14154 2.12308 0.673231 3.11631C0.0363076 4.46154 0 6.13415 0 6.13415V7.38462H2.46154V16H12.3077V7.38462H14.7692V6.096C14.7692 6.096 14.7163 5.57477 14.6154 4.94215C14.5145 4.31015 14.4111 3.61292 14.0578 3.05785C13.6308 2.37622 13.0256 1.82425 12.3077 1.46154V1.40369L12.0578 1.32677C12.0215 1.31015 12.0289 1.32 12 1.30769L11.8843 1.26892L10.0578 0.653538H10.0382C10.024 0.649231 9.63939 0.485539 9.11508 0.327385C8.58154 0.166154 7.95508 0 7.38462 0ZM7.38462 1.23077C7.65169 1.23077 8.26215 1.37231 8.75015 1.51938C8.87754 1.55754 8.87015 1.56 8.98092 1.59631C8.94215 1.65354 8.91323 1.70892 8.86523 1.76923C8.57723 2.12738 8.17292 2.46154 7.38462 2.46154C6.59631 2.46154 6.192 2.12738 5.904 1.76923C5.856 1.70892 5.82708 1.65354 5.78831 1.59631C5.89908 1.56 5.89169 1.55754 6.01908 1.51938C6.50708 1.37231 7.11754 1.23077 7.38462 1.23077ZM4.57662 1.98092C4.66831 2.15631 4.78585 2.344 4.94215 2.53846C5.23548 2.90301 5.60769 3.19626 6.03076 3.39613C6.45383 3.59599 6.91674 3.69726 7.38462 3.69231C8.55754 3.69231 9.37231 3.10338 9.82708 2.53846C9.98339 2.344 10.1009 2.15631 10.192 1.98092L11.0769 2.28862V14.7692H3.69231V2.28862L4.57662 1.98092ZM2.46154 2.80738V6.15385H1.23077C1.23323 6.12 1.32677 4.62954 1.78831 3.65354C1.97354 3.26215 2.21908 2.99015 2.46154 2.808V2.80738ZM12.3077 2.904C12.5335 3.09354 12.7834 3.34092 13.0191 3.71138C13.1175 3.86769 13.3102 4.55754 13.4037 5.13477C13.4929 5.68 13.5335 6.10585 13.5385 6.15385H12.3077V2.904Z" fill="#333333"/>
</svg>
